<?xml version="1.0" encoding="utf-8"?>
<!-- Generator: Adobe Illustrator 16.0.4, SVG Export Plug-In . SVG Version: 6.00 Build 0)  -->
<!DOCTYPE svg PUBLIC "-//W3C//DTD SVG 1.1//EN" "http://www.w3.org/Graphics/SVG/1.1/DTD/svg11.dtd">
<svg version="1.1" id="Layer_1" xmlns="http://www.w3.org/2000/svg" xmlns:xlink="http://www.w3.org/1999/xlink" x="0px" y="0px"
	 width="140px" height="35.94px" viewBox="0 0 140 35.94" enable-background="new 0 0 140 35.94" xml:space="preserve">
<g>
	<g>
		<g>
			<g>
				<rect y="31.063" fill="#FFFFFF" width="137" height="3"/>
			</g>
		</g>
		<g>
			<g>
				<circle fill="#FFFFFF" cx="15.435" cy="32.683" r="3.257"/>
			</g>
		</g>
		<g>
			<g>
				<circle fill="#FFFFFF" cx="26.464" cy="32.683" r="3.257"/>
			</g>
		</g>
		<g>
			<g>
				<circle fill="#FFFFFF" cx="48.519" cy="32.683" r="3.257"/>
			</g>
		</g>
		<g>
			<g>
				<circle fill="#FFFFFF" cx="70.575" cy="32.683" r="3.256"/>
			</g>
		</g>
		<g>
			<g>
				<circle fill="#FFFFFF" cx="114.689" cy="32.683" r="3.257"/>
			</g>
		</g>
		<g>
			<g>
				<circle fill="#FFFFFF" cx="136.744" cy="32.683" r="3.256"/>
			</g>
		</g>
	</g>
	<g>
		<g>
			<path fill="#FFFFFF" d="M25.313,14.764h-5.635v9.115h-2.585V0.677h8.685c4.209,0,7.392,2.221,7.392,6.928
				C33.169,12.212,29.955,14.764,25.313,14.764z M25.679,3.03h-6v9.381h5.668c3.546,0,5.237-1.624,5.237-4.707
				C30.584,4.72,28.861,3.03,25.679,3.03z"/>
			<path fill="#FFFFFF" d="M53.486,13.803l5.105,10.077h-2.983l-4.972-9.877h-5.502v9.877h-2.585V0.677h9.182
				c4.078,0,7.226,2.088,7.226,6.563C58.955,10.853,56.801,13.106,53.486,13.803z M51.63,3.03h-6.497v8.651h6.166
				c3.447,0,5.072-1.425,5.072-4.342C56.37,4.488,54.712,3.03,51.63,3.03z"/>
			<path fill="#FFFFFF" d="M69.228,23.879V0.677h2.586v23.203H69.228z"/>
			<path fill="#FFFFFF" d="M100.583,23.879V8.168V5.682c-0.231,0.895-0.895,2.619-1.392,3.845l-6.198,14.949L86.894,9.527
				c-0.498-1.193-1.127-2.95-1.359-3.845v2.486v15.711h-2.486V0.677h2.884l5.469,13.889c0.563,1.392,1.393,3.546,1.658,4.508
				c0.298-0.995,1.127-3.149,1.657-4.508l5.535-13.889h2.818v23.203H100.583z"/>
			<path fill="#FFFFFF" d="M114.137,23.879V0.677h14.021V3.03h-11.436v7.292h6.629v2.354h-6.629v8.85h11.933v2.354H114.137z"/>
		</g>
		<g>
			<circle fill="#FFFFFF" cx="70.602" cy="3.211" r="3.211"/>
		</g>
	</g>
</g>
</svg>
